Coordinates
version=1
nRows=11
nColumns=36
inDegrees=yes

Units are S.I. units (second, meters, Newtons, ...)
If the header above contains a line with 'inDegrees', this indicates whether rotational values are in degrees (yes) or radians (no).

endheader
time	pelvis_tilt	pelvis_list	pelvis_rotation	pelvis_tx	pelvis_ty	pelvis_tz	hip_flexion_r	hip_adduction_r	hip_rotation_r	knee_angle_r	knee_angle_r_beta	ankle_angle_r	subtalar_angle_r	mtp_angle_r	hip_flexion_l	hip_adduction_l	hip_rotation_l	knee_angle_l	knee_angle_l_beta	ankle_angle_l	subtalar_angle_l	mtp_angle_l	lumbar_extension	lumbar_bending	lumbar_rotation	arm_flex_r	arm_add_r	arm_rot_r	elbow_flex_r	pro_sup_r	arm_flex_l	arm_add_l	arm_rot_l	elbow_flex_l	pro_sup_l
     29.98333330	     -3.20833237	      5.90802290	    187.89683641	      0.60241329	      1.04263574	      0.78802425	     17.43985727	      7.56845825	     -3.54625592	     30.89534545	      0.53922550	      0.88443647	    -12.26478220	     -7.49999987	     31.26183152	    -10.68274828	      5.49125356	     60.98583931	      1.06440369	    -12.91566162	    -12.91351430	     -7.49999987	    -20.16911045	      9.19118884	      5.55704890	     15.46670202	    -16.35475981	      1.06066177	     19.99495611	     76.60351637	     11.84689413	     -7.05068048	      1.43112001	     20.13592493	     78.14486837
     30.00000000	     -3.08962351	      6.11359247	    187.51999325	      0.60601401	      1.04551540	      0.78750983	     16.28030660	      7.77657154	     -3.84245221	     29.76880450	      0.51956365	     -0.54993411	    -15.19807113	     -7.49999987	     31.03254758	    -11.05777755	      3.78400806	     55.08878247	      0.96148063	    -13.58639888	    -12.01209692	     -7.49999987	    -20.21482405	      9.36620437	      6.38176084	     17.31078282	    -17.10615255	      1.52322654	     21.08095894	     77.61128869	     11.71071005	     -6.88372586	      1.03455778	     19.19038770	     78.83148874
     30.01666670	     -2.85983702	      6.62333972	    187.03206361	      0.60938765	      1.04915650	      0.78729088	     15.19999960	      8.28034386	     -4.32887541	     28.56836709	      0.49861207	     -1.51634139	    -17.30476224	     -7.49999987	     30.69566958	    -11.67239618	      1.97647287	     48.92014460	      0.85381759	    -14.45202483	    -10.50975517	     -7.49999987	    -20.09937468	      9.94399801	      7.69666670	     18.95281829	    -18.23269804	      2.00189619	     22.35002727	     78.35318389	     11.49098323	     -6.42863552	      0.50473848	     18.29896359	     79.12425886
     30.03333330	     -2.65966696	      7.16836889	    186.48441650	      0.61213098	      1.05315661	      0.78688604	     14.13973330	      8.82997392	     -4.92714455	     27.56740575	      0.48114200	     -2.11125540	    -18.34865786	     -7.49999987	     29.99309084	    -12.26982642	      0.09431148	     42.33502273	      0.73888554	    -15.86329941	     -8.65057105	     -7.49999987	    -19.92331279	     10.61425764	      9.18772686	     20.39458467	    -19.48614122	      2.62959150	     23.60847700	     79.32484562	     11.08793789	     -5.89930597	     -0.13835437	     17.18473423	     79.74073580
     30.05000000	     -2.20978118	      7.76674856	    186.05920911	      0.61449867	      1.05587317	      0.78775882	     13.50738265	      9.35748421	     -5.70203358	     27.00037120	      0.47124538	     -2.41679344	    -18.36838770	     -7.49999987	     29.27851787	    -12.65213476	     -1.45716672	     35.45224110	      0.61875833	    -18.09411875	     -6.55486526	     -7.49999987	    -19.28296091	     11.40670687	     10.46382436	     21.55509012	    -20.76768588	      3.33318770	     24.75300877	     79.36743573	     10.11589727	     -5.40210883	     -1.01611771	     16.43387212	     79.55991093
     30.06666670	     -1.74050090	      8.23039971	    185.76571103	      0.61703973	      1.05757921	      0.79039932	     13.19890816	      9.70249556	     -6.36162832	     27.16587721	      0.47413400	     -1.93312042	    -17.50214333	     -7.49999987	     28.70363921	    -12.67089162	     -2.49249651	     29.10539916	      0.50798505	    -20.67663625	     -4.44131106	     -7.49999987	    -18.46217520	     12.18592169	     11.31576664	     22.74106990	    -21.82770138	      4.07936213	     25.37150271	     78.88623406	      8.94309754	     -4.90976298	     -2.22744058	     15.58419979	     79.63961940
     30.08333330	     -1.29872866	      8.91631530	    185.67599489	      0.61966832	      1.05755672	      0.79320048	     13.06510671	     10.28755285	     -6.75111517	     27.74640738	      0.48426616	     -0.88856629	    -16.37211243	     -7.49999987	     28.58055938	    -12.75797217	     -2.71932879	     23.91425010	      0.41738240	    -22.85931161	     -2.89155881	     -7.49999987	    -17.48605523	     13.22735298	     12.17877844	     23.34824231	    -22.93550926	      4.00259842	     26.30894708	     78.35500475	      7.89327199	     -4.51161503	     -2.35739970	     14.79802195	     79.86544564
     30.10000000	     -1.34462965	      9.54399455	    185.85843358	      0.62302414	      1.05673099	      0.79458674	     12.45274348	     10.93406490	     -6.93403854	     28.34344195	      0.49468638	      0.51259588	    -15.20171327	     -7.49999987	     28.65750924	    -12.91621480	     -2.44053862	     20.04814391	      0.34990612	    -24.53500901	     -1.95221431	     -7.49999987	    -16.98575710	     14.16919723	     12.84303794	     23.89486060	    -23.94484237	      3.88230753	     27.09268622	     78.24045879	      7.28713786	     -4.19952755	     -2.51060148	     13.94620480	     80.46747554
     30.11666670	     -1.94190698	     10.05912122	    186.27431166	      0.62746506	      1.05484760	      0.79553586	     11.13492594	     11.63096875	     -7.01925118	     28.55030448	      0.49829682	      1.86895355	    -14.19924400	     -7.49999987	     28.82735307	    -13.18368668	     -1.94041011	     17.33951560	      0.30263164	    -25.13178209	     -1.43271348	     -7.49999987	    -17.12479780	     14.90053559	     13.31438914	     24.64524927	    -24.74858335	      3.74551526	     27.55902836	     77.43942707	      7.13763314	     -4.06529798	     -1.67808344	     13.12002422	     80.45517182
     30.13333330	     -2.87606570	     10.47493567	    186.69095750	      0.63141763	      1.05157245	      0.79783010	      9.34903695	     12.27346089	     -7.22479947	     28.47887845	      0.49705020	      3.63043468	    -13.08393337	     -7.49999987	     28.94908327	    -13.51535108	     -1.67339023	     15.36469089	      0.26816444	    -24.39466141	     -0.91785256	     -7.49999987	    -17.72960512	     15.53517489	     13.59783579	     25.79248384	    -25.41570613	      4.02767345	     27.62748021	     77.74709258	      7.15872860	     -3.86349793	     -2.31312120	     12.44155583	     82.42893136
     30.15000000	     -3.81759680	     10.70942939	    186.99043290	      0.63408058	      1.04695353	      0.80129361	      7.39602842	     12.62296972	     -7.68794830	     28.25929204	      0.49321769	      5.52561875	    -11.85642585	     -7.49999987	     28.92550466	    -13.68656495	     -1.97068530	     13.71406506	      0.23935559	    -22.56806939	     -0.14188395	     -7.49999987	    -18.35782495	     15.98978097	     14.02132907	     26.70319328	    -26.00248361	      3.53318310	     27.87806072	     77.28273744	      7.33101336	     -3.72589262	     -1.06484295	     11.56305044	     82.11224772
